<svg fill="none" height="920" viewBox="0 0 1440 920" width="1440" xmlns="http://www.w3.org/2000/svg" xmlns:xlink="http://www.w3.org/1999/xlink"><linearGradient id="a" gradientUnits="userSpaceOnUse" x1="720" x2="720" y1="-2" y2="920"><stop offset="0" stop-color="#0d62f9"/><stop offset="1" stop-color="#0d62f9"/></linearGradient><mask id="b" height="922" maskUnits="userSpaceOnUse" width="1440" x="0" y="-2"><path d="M0 -2 H1440 V840 C1320 885 1140 912 880 916 C580 918 260 912 0 860 Z" fill="url(#a)"/></mask><path d="M0 -2 H1440 V840 C1320 885 1140 912 880 916 C580 918 260 912 0 860 Z" fill="url(#a)"/><g fill="#fff" mask="url(#b)"><g opacity=".76"><rect height="311.499" opacity=".1" rx="62.4072" transform="matrix(.85517886 .51833302 -.51833302 .85517886 156.239034 -745.199089)" width="124.814" x="1411.7" y="-93"/><rect height="349.86" opacity=".1" rx="57.7495" transform="matrix(.85517886 .51833302 -.51833302 .85517886 282.827772 -615.176055)" width="115.499" x="1242.31" y="198.55"/><rect height="442.632" opacity=".1" rx="69.7026" transform="matrix(.85517886 .51833302 -.51833302 .85517886 257.646345 -763.514371)" width="139.405" x="1495.18" y="79.3171"/></g><g opacity=".5"><rect height="393" opacity=".1" rx="84.347" transform="matrix(.85517886 .51833302 -.51833302 .85517886 147.402911 -3.061499)" width="168.694" x="79.1802" y="262.256"/><rect height="393" opacity=".1" rx="59.1372" transform="matrix(.85517886 .51833302 -.51833302 .85517886 282.88957 -22.497237)" width="118.274" x="181.705" y="495"/></g></g></svg>